# xmcd
#
# Track frame offsets: 
#        150
#        16197
#        33950
#        53175
#        69200
#        87425
#        104850
#        120387
#        135175
#        151312
#        168912
#        186312
#        204275
#        221137
#        241550
#        261662
#        278712
#        294987
#
# Disc length: 4147 seconds
#
# Revision: 0
# Processed by: cddbd v1.5.2PL0 Copyright (c) Steve Scherf et al.
# Submitted via: ExactAudioCopy v1.0b3
#
DISCID=f8103112
DTITLE=渡哲也 - 渡哲也 ゴールデン☆ベスト UPCY-6014
DYEAR=2004
DGENRE=JPop
TTITLE0=くちなしの花
TTITLE1=通りゃんせ仁義 
TTITLE2=わかれ花
TTITLE3=あじさいの雨 
TTITLE4=あいつ
TTITLE5=みちづれ 
TTITLE6=水割り
TTITLE7=ひとり
TTITLE8=ほおずき 
TTITLE9=日暮れ坂 
TTITLE10=流氷の街 
TTITLE11=めぐり逢いしのび逢い
TTITLE12=わかれ道
TTITLE13=ラストシーンは見たくない
TTITLE14=花あかり
TTITLE15=さざんかの女 
TTITLE16=夜霧のブルース 
TTITLE17=夜霧よ今夜もありがとう 
EXTD=
EXTT0=
EXTT1=
EXTT2=
EXTT3=
EXTT4=
EXTT5=
EXTT6=
EXTT7=
EXTT8=
EXTT9=
EXTT10=
EXTT11=
EXTT12=
EXTT13=
EXTT14=
EXTT15=
EXTT16=
EXTT17=
PLAYORDER=
